<?xml version="1.0" encoding="UTF-8" standalone="no"?>
<!DOCTYPE svg PUBLIC "-//W3C//DTD SVG 1.1//EN"
 "http://www.w3.org/Graphics/SVG/1.1/DTD/svg11.dtd">
<!-- Generated by graphviz version 2.43.0 (0)
 -->
<!-- Title: %3 Pages: 1 -->
<svg width="658pt" height="418pt"
 viewBox="0.00 0.00 658.18 418.00" xmlns="http://www.w3.org/2000/svg" xmlns:xlink="http://www.w3.org/1999/xlink">
<g id="graph0" class="graph" transform="scale(1 1) rotate(0) translate(4 414)">
<title>%3</title>
<polygon fill="white" stroke="transparent" points="-4,4 -4,-414 654.18,-414 654.18,4 -4,4"/>
<text text-anchor="middle" x="325.09" y="-10" font-family="Times,serif" font-size="20.00">Minha Rede Neural (MLP)</text>
<g id="clust1" class="cluster">
<title>cluster_input</title>
<polygon fill="lightgrey" stroke="lightgrey" points="0,-74 0,-366 217.39,-366 217.39,-74 0,-74"/>
<text text-anchor="middle" x="108.69" y="-346" font-family="Times,serif" font-size="20.00">Camada de Entrada</text>
</g>
<g id="clust2" class="cluster">
<title>cluster_l0</title>
<polygon fill="lightgrey" stroke="lightgrey" points="237.39,-38 237.39,-402 437.79,-402 437.79,-38 237.39,-38"/>
<text text-anchor="middle" x="337.59" y="-382" font-family="Times,serif" font-size="20.00">1ª Camada Oculta</text>
</g>
<g id="clust3" class="cluster">
<title>cluster_l1</title>
<polygon fill="lightgrey" stroke="lightgrey" points="457.79,-172 457.79,-268 650.18,-268 650.18,-172 457.79,-172"/>
<text text-anchor="middle" x="553.98" y="-248" font-family="Times,serif" font-size="20.00">Camada de Saída</text>
</g>
<!-- input_0 -->
<g id="node1" class="node">
<title>input_0</title>
<ellipse fill="palegreen" stroke="black" cx="108.19" cy="-271" rx="57.39" ry="57.39"/>
<text text-anchor="middle" x="108.19" y="-267.3" font-family="Times,serif" font-size="14.00">Entrada 1</text>
</g>
<!-- l0_n0 -->
<g id="node3" class="node">
<title>l0_n0</title>
<ellipse fill="lightblue" stroke="black" cx="337.09" cy="-138" rx="24.9" ry="24.9"/>
<text text-anchor="middle" x="337.09" y="-134.3" font-family="Times,serif" font-size="14.00">N1</text>
</g>
<!-- input_0&#45;&gt;l0_n0 -->
<g id="edge1" class="edge">
<title>input_0&#45;&gt;l0_n0</title>
<path fill="none" stroke="black" d="M157.87,-242.47C203,-216.01 268.71,-177.5 306.45,-155.38"/>
<polygon fill="black" stroke="black" points="308.55,-158.2 315.41,-150.12 305.01,-152.16 308.55,-158.2"/>
</g>
<!-- l0_n1 -->
<g id="node4" class="node">
<title>l0_n1</title>
<ellipse fill="lightblue" stroke="black" cx="337.09" cy="-71" rx="24.9" ry="24.9"/>
<text text-anchor="middle" x="337.09" y="-67.3" font-family="Times,serif" font-size="14.00">N2</text>
</g>
<!-- input_0&#45;&gt;l0_n1 -->
<g id="edge3" class="edge">
<title>input_0&#45;&gt;l0_n1</title>
<path fill="none" stroke="black" d="M151.61,-233.62C198.19,-192.56 271.5,-127.93 310.19,-93.83"/>
<polygon fill="black" stroke="black" points="312.71,-96.27 317.9,-87.03 308.08,-91.02 312.71,-96.27"/>
</g>
<!-- l0_n2 -->
<g id="node5" class="node">
<title>l0_n2</title>
<ellipse fill="lightblue" stroke="black" cx="337.09" cy="-339" rx="24.9" ry="24.9"/>
<text text-anchor="middle" x="337.09" y="-335.3" font-family="Times,serif" font-size="14.00">N3</text>
</g>
<!-- input_0&#45;&gt;l0_n2 -->
<g id="edge5" class="edge">
<title>input_0&#45;&gt;l0_n2</title>
<path fill="none" stroke="black" d="M163.25,-287.2C206.86,-300.27 266.78,-318.23 303.4,-329.2"/>
<polygon fill="black" stroke="black" points="302.49,-332.58 313.07,-332.1 304.5,-325.88 302.49,-332.58"/>
</g>
<!-- l0_n3 -->
<g id="node6" class="node">
<title>l0_n3</title>
<ellipse fill="lightblue" stroke="black" cx="337.09" cy="-272" rx="24.9" ry="24.9"/>
<text text-anchor="middle" x="337.09" y="-268.3" font-family="Times,serif" font-size="14.00">N4</text>
</g>
<!-- input_0&#45;&gt;l0_n3 -->
<g id="edge7" class="edge">
<title>input_0&#45;&gt;l0_n3</title>
<path fill="none" stroke="black" d="M165.57,-271.25C208.46,-271.44 266.05,-271.69 302.11,-271.85"/>
<polygon fill="black" stroke="black" points="302.11,-275.35 312.13,-271.89 302.15,-268.35 302.11,-275.35"/>
</g>
<!-- l0_n4 -->
<g id="node7" class="node">
<title>l0_n4</title>
<ellipse fill="lightblue" stroke="black" cx="337.09" cy="-205" rx="24.9" ry="24.9"/>
<text text-anchor="middle" x="337.09" y="-201.3" font-family="Times,serif" font-size="14.00">N5</text>
</g>
<!-- input_0&#45;&gt;l0_n4 -->
<g id="edge9" class="edge">
<title>input_0&#45;&gt;l0_n4</title>
<path fill="none" stroke="black" d="M163.25,-255.28C206.86,-242.59 266.78,-225.16 303.4,-214.51"/>
<polygon fill="black" stroke="black" points="304.45,-217.85 313.07,-211.69 302.49,-211.13 304.45,-217.85"/>
</g>
<!-- input_1 -->
<g id="node2" class="node">
<title>input_1</title>
<ellipse fill="palegreen" stroke="black" cx="108.19" cy="-139" rx="57.39" ry="57.39"/>
<text text-anchor="middle" x="108.19" y="-135.3" font-family="Times,serif" font-size="14.00">Entrada 2</text>
</g>
<!-- input_1&#45;&gt;l0_n0 -->
<g id="edge2" class="edge">
<title>input_1&#45;&gt;l0_n0</title>
<path fill="none" stroke="black" d="M165.57,-138.75C208.46,-138.56 266.05,-138.31 302.11,-138.15"/>
<polygon fill="black" stroke="black" points="302.15,-141.65 312.13,-138.11 302.11,-134.65 302.15,-141.65"/>
</g>
<!-- input_1&#45;&gt;l0_n1 -->
<g id="edge4" class="edge">
<title>input_1&#45;&gt;l0_n1</title>
<path fill="none" stroke="black" d="M163.25,-122.8C206.86,-109.73 266.78,-91.77 303.4,-80.8"/>
<polygon fill="black" stroke="black" points="304.5,-84.12 313.07,-77.9 302.49,-77.42 304.5,-84.12"/>
</g>
<!-- input_1&#45;&gt;l0_n2 -->
<g id="edge6" class="edge">
<title>input_1&#45;&gt;l0_n2</title>
<path fill="none" stroke="black" d="M151.61,-176.38C198.19,-217.44 271.5,-282.07 310.19,-316.17"/>
<polygon fill="black" stroke="black" points="308.08,-318.98 317.9,-322.97 312.71,-313.73 308.08,-318.98"/>
</g>
<!-- input_1&#45;&gt;l0_n3 -->
<g id="edge8" class="edge">
<title>input_1&#45;&gt;l0_n3</title>
<path fill="none" stroke="black" d="M157.87,-167.53C203,-193.99 268.71,-232.5 306.45,-254.62"/>
<polygon fill="black" stroke="black" points="305.01,-257.84 315.41,-259.88 308.55,-251.8 305.01,-257.84"/>
</g>
<!-- input_1&#45;&gt;l0_n4 -->
<g id="edge10" class="edge">
<title>input_1&#45;&gt;l0_n4</title>
<path fill="none" stroke="black" d="M163.25,-154.72C206.86,-167.41 266.78,-184.84 303.4,-195.49"/>
<polygon fill="black" stroke="black" points="302.49,-198.87 313.07,-198.31 304.45,-192.15 302.49,-198.87"/>
</g>
<!-- l1_n0 -->
<g id="node8" class="node">
<title>l1_n0</title>
<ellipse fill="lightgoldenrodyellow" stroke="black" cx="553.48" cy="-205" rx="24.9" ry="24.9"/>
<text text-anchor="middle" x="553.48" y="-201.3" font-family="Times,serif" font-size="14.00">N1</text>
</g>
<!-- l0_n0&#45;&gt;l1_n0 -->
<g id="edge11" class="edge">
<title>l0_n0&#45;&gt;l1_n0</title>
<path fill="none" stroke="black" d="M361.03,-145.17C399.31,-157.13 476.33,-181.2 520.11,-194.88"/>
<polygon fill="black" stroke="black" points="519.12,-198.24 529.7,-197.88 521.2,-191.56 519.12,-198.24"/>
</g>
<!-- l0_n1&#45;&gt;l1_n0 -->
<g id="edge12" class="edge">
<title>l0_n1&#45;&gt;l1_n0</title>
<path fill="none" stroke="black" d="M358.64,-83.85C396.98,-107.81 479.48,-159.37 523.47,-186.87"/>
<polygon fill="black" stroke="black" points="521.65,-189.86 531.99,-192.19 525.36,-183.92 521.65,-189.86"/>
</g>
<!-- l0_n2&#45;&gt;l1_n0 -->
<g id="edge13" class="edge">
<title>l0_n2&#45;&gt;l1_n0</title>
<path fill="none" stroke="black" d="M358.64,-326.15C396.98,-302.19 479.48,-250.63 523.47,-223.13"/>
<polygon fill="black" stroke="black" points="525.36,-226.08 531.99,-217.81 521.65,-220.14 525.36,-226.08"/>
</g>
<!-- l0_n3&#45;&gt;l1_n0 -->
<g id="edge14" class="edge">
<title>l0_n3&#45;&gt;l1_n0</title>
<path fill="none" stroke="black" d="M361.03,-264.83C399.31,-252.87 476.33,-228.8 520.11,-215.12"/>
<polygon fill="black" stroke="black" points="521.2,-218.44 529.7,-212.12 519.12,-211.76 521.2,-218.44"/>
</g>
<!-- l0_n4&#45;&gt;l1_n0 -->
<g id="edge15" class="edge">
<title>l0_n4&#45;&gt;l1_n0</title>
<path fill="none" stroke="black" d="M361.85,-205C399.92,-205 474.74,-205 518.47,-205"/>
<polygon fill="black" stroke="black" points="518.61,-208.5 528.61,-205 518.61,-201.5 518.61,-208.5"/>
</g>
</g>
</svg>
